# xmcd
# 
# Track frame offsets:
#     150
#     22560
#     44249
#     71373
#     96777
# 
# Disc length: 1567
# 
# Revision: 0
# Processed by: cddbd v1.5.2PL0 Copyright (c) Steve Scherf et al.
# Submitted via: fre:ac v1.0.17
# 
DISCID=36061d05
DTITLE=Descent - Descent
DYEAR=2000
DGENRE=Metal
TTITLE0=Sick of it All
TTITLE1=K
TTITLE2=Pity
TTITLE3=Inextinguishable
TTITLE4=K Live
EXTD=
EXTT0=
EXTT1=
EXTT2=
EXTT3=
EXTT4=
PLAYORDER=
